<?xml version="1.0" encoding="utf-8"?>
<!-- Generator: Adobe Illustrator 24.0.0, SVG Export Plug-In . SVG Version: 6.00 Build 0)  -->
<svg version="1.1" id="Capa_1" focusable="false" xmlns="http://www.w3.org/2000/svg" xmlns:xlink="http://www.w3.org/1999/xlink"
	 x="0px" y="0px" viewBox="0 0 18 19" style="enable-background:new 0 0 18 19;" xml:space="preserve">
<style type="text/css">
	.st0{fill:#FFFFFF;}
</style>
<g id="line_35_">
	<path class="st0" d="M4.9,15.7V9.1H1v6.6C1,15.7,4.9,15.7,4.9,15.7z M2.1,10.1h1.6v4.7H2.1V10.1z"/>
	<path class="st0" d="M6,15.7h3.8V6.9H6V15.7z M7.1,7.8h1.6v6.9H7.1V7.8L7.1,7.8z"/>
	<path class="st0" d="M14.8,4.5H11v11.2h3.8V4.5z M13.7,14.8H12V5.5h1.6L13.7,14.8L13.7,14.8z"/>
	<path class="st0" d="M11,0.2L7.8,1.8l1.1,0.6C5.5,6.1,0.1,7,0.1,7l0.2,1c0.2,0,5.9-1,9.5-5.1l1.1,0.6L11,0.2z"/>
</g>
</svg>
