<?xml version="1.0" encoding="utf-8"?>
<!-- Generator: Adobe Illustrator 24.0.0, SVG Export Plug-In . SVG Version: 6.00 Build 0)  -->
<svg version="1.1" id="Capa_1" focusable="false" xmlns="http://www.w3.org/2000/svg" xmlns:xlink="http://www.w3.org/1999/xlink"
	 x="0px" y="0px" viewBox="0 0 18 19" style="enable-background:new 0 0 18 19;" xml:space="preserve">
<style type="text/css">
	.st0{fill:#FFFFFF;}
</style>
<g>
	<g>
		<g>
			<path class="st0" d="M7.6,0.3C7.6,0.3,7.6,0.3,7.6,0.3C7.6,0.3,7.6,0.3,7.6,0.3C7.6,0.3,7.6,0.3,7.6,0.3c-2,0-3.8,1-5.2,2.7
				c0,0,0,0,0,0c0,0,0,0,0,0C1.1,4.6,0.3,6.9,0.3,9.4c0,0,0,0,0,0c0,0,0,0,0,0c0,2.1,0.6,4.2,1.7,5.8c0.1,0.2,0.3,0.3,0.5,0.3h10.3
				c0.2,0,0.4-0.1,0.5-0.3c1.1-1.6,1.7-3.7,1.7-5.8C14.9,4.4,11.6,0.3,7.6,0.3z M12.5,14H2.7c-0.7-1.1-1.1-2.4-1.2-3.8h1.8
				C3.7,10.2,4,9.8,4,9.4C4,9,3.7,8.6,3.3,8.6H1.6c0.1-1.5,0.6-2.9,1.3-4l0.4,0.5c0.2,0.3,0.6,0.3,0.9,0c0.2-0.3,0.2-0.8,0-1.1
				L3.8,3.5C4.7,2.6,5.8,2,7,1.8v2.2c0,0.4,0.3,0.8,0.6,0.8s0.6-0.3,0.6-0.8V1.8c1.2,0.2,2.3,0.8,3.2,1.7L11.1,4
				c-0.2,0.3-0.2,0.8,0,1.1s0.6,0.3,0.9,0l0.4-0.5c0.7,1.1,1.2,2.5,1.3,4h-1.8c-0.3,0-0.6,0.3-0.6,0.8c0,0.4,0.3,0.8,0.6,0.8h1.8
				C13.6,11.6,13.1,12.9,12.5,14z"/>
			<polygon class="st0" points="9.4,6.6 6,8.8 7.7,10.9 			"/>
			<path class="st0" d="M9.4,11.7H5.8c-0.3,0-0.6,0.3-0.6,0.8c0,0.4,0.3,0.8,0.6,0.8h3.7c0.3,0,0.6-0.3,0.6-0.8
				C10,12,9.8,11.7,9.4,11.7z"/>
		</g>
	</g>
</g>
</svg>
