<?xml version="1.0" encoding="utf-8"?>
<!-- Generator: Adobe Illustrator 24.0.0, SVG Export Plug-In . SVG Version: 6.00 Build 0)  -->
<svg version="1.1" id="Capa_1" focusable="false" xmlns="http://www.w3.org/2000/svg" xmlns:xlink="http://www.w3.org/1999/xlink"
	 x="0px" y="0px" viewBox="0 0 18 19" style="enable-background:new 0 0 18 19;" xml:space="preserve">
<style type="text/css">
	.st0{fill:#FFFFFF;}
</style>
<path class="st0" d="M0.1,14.8h15.1v1.1H0.1V14.8z M7.5,0.5c1,0,1.7,0.8,1.7,1.7S8.4,3.9,7.5,3.9S5.7,3.2,5.7,2.2S6.5,0.5,7.5,0.5z
	 M1.6,11.9c0.3,0,0.6-0.1,0.7-0.4c0,0,0,0,0,0l2.1-1.9c0.1-0.1,0.1-0.2,0.2-0.3l0.7-1.4l0,2.5L2.4,12c-0.5,0.3-0.8,0.9-0.6,1.5
	c0.2,0.6,0.8,0.9,1.4,0.9l4.3-1.1l4.3,1.1c0.6,0.1,1.2-0.3,1.4-0.9c0.2-0.6-0.1-1.2-0.6-1.5l-2.9-1.6l0-2.5l0.7,1.4
	c0,0.1,0.1,0.2,0.2,0.3l2.1,1.9c0,0,0,0,0,0c0.2,0.2,0.4,0.4,0.7,0.4c0.5,0,0.9-0.4,0.9-0.9c0-0.3-0.1-0.5-0.3-0.7
	c0,0,0-0.1-0.1-0.1l-2-1.8l-1.3-2.7c-0.3-0.7-0.8-1.1-1.6-1.1H5.9c-0.8,0-1.2,0.4-1.6,1.1L3,8.3l-2,1.8c0,0,0,0.1-0.1,0.1
	c-0.2,0.2-0.3,0.4-0.3,0.7C0.7,11.5,1.1,11.9,1.6,11.9z"/>
</svg>
