<?xml version="1.0" encoding="utf-8"?>
<!-- Generator: Adobe Illustrator 24.0.0, SVG Export Plug-In . SVG Version: 6.00 Build 0)  -->
<svg version="1.1" id="Capa_1" focusable="false" xmlns="http://www.w3.org/2000/svg" xmlns:xlink="http://www.w3.org/1999/xlink"
	 x="0px" y="0px" viewBox="0 0 18 19" style="enable-background:new 0 0 18 19;" xml:space="preserve">
<style type="text/css">
	.st0{fill:#FFFFFF;}
</style>
<g>
	<path class="st0" d="M4.5,6.5l2.7-2.7l2.7,2.7L11.5,5L7.2,0.6L2.9,5L4.5,6.5 M0.2,7.7l1.6-1.6l1.6,1.6L1.8,9.3L0.2,7.7z M4.5,8.8
		l2.7,2.7l2.7-2.7l1.6,1.6l0,0l-4.3,4.3l-4.3-4.3l0,0L4.5,8.8 M11,7.7l1.6-1.6l1.6,1.6l-1.6,1.6L11,7.7z"/>
	<path class="st0" d="M8.8,7.7L8.8,7.7L7.2,6.1L6,7.2h0L5.9,7.4L5.6,7.7l0,0l0,0l1.6,1.6L8.8,7.7L8.8,7.7L8.8,7.7"/>
</g>
</svg>
