<?xml version="1.0" encoding="utf-8"?>
<!-- Generator: Adobe Illustrator 24.0.0, SVG Export Plug-In . SVG Version: 6.00 Build 0)  -->
<svg version="1.1" id="Capa_1" xmlns="http://www.w3.org/2000/svg" xmlns:xlink="http://www.w3.org/1999/xlink" x="0px" y="0px"
	 viewBox="0 0 563.8 105.2" style="enable-background:new 0 0 563.8 105.2;" xml:space="preserve">
<style type="text/css">
	.st0{fill:#D9075B;}
	.st1{fill:url(#SVGID_1_);}
	.st2{fill:url(#SVGID_2_);}
	.st3{fill:#F349C5;}
	.st4{fill:url(#SVGID_3_);}
	.st5{fill:url(#SVGID_4_);}
	.st6{fill:url(#SVGID_5_);}
	.st7{clip-path:url(#SVGID_10_);}
	.st8{clip-path:url(#SVGID_11_);fill:url(#SVGID_12_);}
	.st9{fill:url(#SVGID_13_);}
	.st10{fill:url(#SVGID_14_);}
	.st11{clip-path:url(#SVGID_19_);}
	.st12{clip-path:url(#SVGID_20_);fill:url(#SVGID_21_);}
	.st13{fill:url(#SVGID_22_);}
	.st14{fill:#FFFFFF;}
	.st15{enable-background:new    ;}
</style>
<title>Oceanpoint_logo</title>
<g id="Layer_1">
	<g>
		<path class="st0" d="M95.5,73.7c0.4,2.6,0.2,5.2-0.8,7.7c0,0.1-0.1,0.2-0.1,0.3c-0.1,0.2-0.2,0.3-0.2,0.5c0,0.1-0.1,0.2-0.2,0.3
			c0,0.1-0.1,0.2-0.2,0.3s-0.1,0.2-0.2,0.3s-0.1,0.2-0.2,0.3c-0.2,0.3-0.3,0.6-0.5,0.8c-0.1,0.1-0.2,0.2-0.2,0.3
			c-0.2,0.3-0.4,0.5-0.6,0.8c-0.1,0.2-0.3,0.3-0.4,0.5c-0.2,0.2-0.4,0.4-0.6,0.6c0,0-0.1,0.1-0.2,0.2l0,0c-1,1-2,2-3,2.9l0,0
			c-0.1,0.1-0.2,0.2-0.3,0.2c-5.5,4.7-12,8-18.8,9.8c3.9-1.2,7.5-2.9,10.7-5.3c2.3-1.7-1.6-6.4,2.6-9.8c3.7-3.1,8.3-5.6,11.2-10.7
			c0.5-0.9,1-1.9,1.4-2.8c0,0.1,0.1,0.2,0.1,0.3c0,0.2,0.1,0.3,0.1,0.5c0,0.1,0.1,0.2,0.1,0.3c0,0.2,0.1,0.3,0.1,0.5
			s0.1,0.4,0.1,0.7C95.5,73.4,95.5,73.5,95.5,73.7z"/>
		
			<linearGradient id="SVGID_1_" gradientUnits="userSpaceOnUse" x1="47.9294" y1="-1989.7664" x2="92.8202" y2="-2018.4465" gradientTransform="matrix(1 0 0 -1 0 -1927.3545)">
			<stop  offset="0.109" style="stop-color:#BD0543"/>
			<stop  offset="0.5341" style="stop-color:#DC387B"/>
			<stop  offset="0.8518" style="stop-color:#F461A8"/>
		</linearGradient>
		<path class="st1" d="M57.7,101.4c-0.7,0-1.5,0-2.3,0c15.3-0.4,25.3-10.6,17.2-23.6C68.1,71.1,54.4,62,51.4,51.9
			c10.7-0.9,22.4-3.4,30.5-2c0.7,0.9,1.5,2.1,2.3,3.1l0,0c0.2,0.4,0.5,0.7,0.7,1l0,0c0.3,0.4,0.6,0.9,1,1.4l0,0c1,1.3,1.9,2.7,2.8,4
			l0,0c0.2,0.2,0.3,0.4,0.4,0.7l0,0c0.4,0.7,0.9,1.3,1.3,2l0,0c0.4,0.7,0.8,1.3,1.2,1.9l0,0c1.2,2.1,2.5,4.6,3.2,7
			c-0.4,0.9-0.8,1.9-1.4,2.8c-2.9,5.1-7.5,7.7-11.2,10.7c-4.2,3.4-0.3,8.1-2.6,9.8c-3.2,2.4-6.9,4.1-10.7,5.3
			C65.3,100.6,61.5,101.2,57.7,101.4z"/>
		
			<linearGradient id="SVGID_2_" gradientUnits="userSpaceOnUse" x1="60.5342" y1="-1963.2764" x2="70.766" y2="-1988.502" gradientTransform="matrix(1 0 0 -1 0 -1927.3545)">
			<stop  offset="0.109" style="stop-color:#551665"/>
			<stop  offset="0.2571" style="stop-color:#6D1159"/>
			<stop  offset="0.4391" style="stop-color:#850D4D"/>
			<stop  offset="0.5517" style="stop-color:#8E0B49"/>
		</linearGradient>
		<path class="st2" d="M73.9,37.5c2.2,4.3,5.1,8.5,8,12.5c-8-1.4-19.8,1.1-30.5,2c-0.2-0.6-0.3-1.2-0.4-1.9
			c-0.5-3.2,0.2-6.5,2.7-9.9c0.4-0.5,0.8-1.1,1.4-1.6c3.4-3.4,7.7-4.3,12.5-4.9c1.3-0.2,2.8-0.3,4.3-0.5
			C72.5,34.5,73.2,36,73.9,37.5z"/>
		<path class="st3" d="M84.2,50.5c10.4,2.4,14,12,10.7,20.5c-0.4-1.3-1-2.8-1.7-4.1c-0.1-0.1-0.2-0.4-0.3-0.6
			c-0.4-0.7-0.8-1.5-1.2-2.2l0,0c-0.4-0.6-0.8-1.3-1.2-1.9l0,0c-0.4-0.7-0.8-1.3-1.3-2l0,0c-0.2-0.2-0.3-0.4-0.4-0.7l0,0
			c-0.9-1.3-1.9-2.7-2.8-4l0,0c-0.3-0.4-0.6-0.9-1-1.4l0,0c-0.2-0.3-0.5-0.7-0.7-1l0,0c-0.7-1-1.5-2-2.3-3.1
			C82.7,50.1,83.5,50.3,84.2,50.5z"/>
		
			<linearGradient id="SVGID_3_" gradientUnits="userSpaceOnUse" x1="71.9382" y1="-1975.6544" x2="104.8809" y2="-1975.6544" gradientTransform="matrix(1 0 0 -1 0 -1927.3545)">
			<stop  offset="0.372" style="stop-color:#D35C9F"/>
			<stop  offset="0.5805" style="stop-color:#DB5DA1"/>
			<stop  offset="0.9082" style="stop-color:#F261A7"/>
			<stop  offset="0.9368" style="stop-color:#F461A8"/>
		</linearGradient>
		<path class="st4" d="M89.3,25.7c0.9-3-0.4-6.8-3.6-10.4c-1.9-2.1-4.1-3.8-6.8-5.4c15.4,8.1,26,24.3,26,43c0,13.1-5.2,25-13.7,33.8
			c1.4-1.5,2.7-3.2,3.5-5.3c1-2.5,1.2-5.1,0.8-7.7c-0.1-0.8-0.3-1.7-0.6-2.6c3.3-8.6-0.3-18.1-10.7-20.5c-0.7-0.2-1.5-0.4-2.3-0.6
			c-2.9-4-5.7-8.2-8-12.5c-0.7-1.4-1.4-2.8-2-4.4c6-0.6,11.8-1.8,15.2-4.2l0,0c0.1-0.1,0.2-0.2,0.3-0.2l0,0
			C88.2,27.9,88.9,26.9,89.3,25.7z"/>
		
			<linearGradient id="SVGID_4_" gradientUnits="userSpaceOnUse" x1="54" y1="-1946.0544" x2="89.5081" y2="-1946.0544" gradientTransform="matrix(1 0 0 -1 0 -1927.3545)">
			<stop  offset="0.349" style="stop-color:#949AAD"/>
			<stop  offset="0.45" style="stop-color:#9392A6"/>
			<stop  offset="0.6089" style="stop-color:#907B95"/>
			<stop  offset="0.8049" style="stop-color:#8B5778"/>
			<stop  offset="0.9368" style="stop-color:#873A61"/>
		</linearGradient>
		<path class="st5" d="M85.7,15.4c3.2,3.6,4.5,7.4,3.6,10.4c-0.3,1-0.9,2.1-1.9,2.9l0,0c-0.1,0.1-0.2,0.2-0.3,0.2l0,0
			c-1.9,1.5-4.9,2.3-7.1,2.9c-2.6,0.6-5.5,1-8.1,1.3c-0.6-1.5-1.1-3.1-1.5-4.7c0-0.1-0.1-0.2-0.1-0.4c-0.1-0.2-0.1-0.5-0.2-0.7
			c-0.4-1.9-0.6-3.9-0.6-6c0-2-0.2-3.6-0.7-5.6S67.4,11.8,66,10c-2.7-3.4-7-5.3-12-5.6c0.8,0,1.6-0.1,2.4-0.1c8.1,0,15.8,2,22.5,5.5
			C81.6,11.5,83.8,13.3,85.7,15.4z"/>
		<g>
			
				<linearGradient id="SVGID_5_" gradientUnits="userSpaceOnUse" x1="25.796" y1="-1956.0242" x2="74.2236" y2="-1955.2563" gradientTransform="matrix(1 0 0 -1 0 -1927.3545)">
				<stop  offset="0.4094" style="stop-color:#36BCD7"/>
				<stop  offset="0.496" style="stop-color:#37B6D3"/>
				<stop  offset="0.609" style="stop-color:#3BA6C7"/>
				<stop  offset="0.7367" style="stop-color:#418BB4"/>
				<stop  offset="0.8742" style="stop-color:#496699"/>
				<stop  offset="0.9277" style="stop-color:#4D558D"/>
			</linearGradient>
			<path class="st6" d="M65.2,9.2c1.3,1.4,2.4,3.1,3.1,5c0.2,0.5,0.4,1.1,0.5,1.6c0,0.3,0.1,0.3,0.4,2.2c0.2,1.1,0.2,2.2,0.2,3.4
				c0,2,0.2,4,0.6,6c0.4,1.9,1,3.9,1.8,5.7c-1.4,0.2-2.8,0.3-4.3,0.5c-4.9,0.6-9.2,1.5-12.5,4.9c-0.5,0.5-0.9,1-1.4,1.6
				c-2.5,3.4-3.2,6.7-2.7,9.9c0.1,0.6,0.2,1.3,0.4,1.9c-8.9,0.7-17.1,0.4-21.8-4.2c-1.5-1.5-2.9-3.5-3.4-5.8
				c-0.5-2.1-0.3-4.3,0.5-6.4c1-2.8,2.7-5.3,4.7-7.5c4.3-4.9,10.5-9.3,15.9-12.2c1.5-0.9,2.6-2.3,3.1-4.2c0.2-0.9,0.2-1.9-0.3-2.8
				c-0.2-0.4-0.6-0.8-1.2-1.2l0,0c-0.3-0.2-0.6-0.3-1.2-0.5l0,0c-0.9-0.2-2.2-0.3-3.7-0.2C42,7.1,40,7.6,38.1,8.2
				c4.8-2,9.5-3.2,13.5-3.6c0.7-0.1,1.5-0.1,2.2-0.2C58.5,4.7,62.5,6.3,65.2,9.2z"/>
			<g>
				<g>
					<g>
						<g>
							<defs>
								<polygon id="SVGID_6_" points="-75.7,173.7 -75.5,173.7 -75.7,174 								"/>
							</defs>
							<clipPath id="SVGID_7_">
								<use xlink:href="#SVGID_6_"  style="overflow:visible;"/>
							</clipPath>
						</g>
						<g>
							<defs>
								<polygon id="SVGID_8_" points="-75.7,173.7 -75.5,173.7 -75.7,174 								"/>
							</defs>
							<defs>
								<polygon id="SVGID_9_" points="-76.1,173.3 -76.4,173.3 -76.1,173.1 								"/>
							</defs>
							<clipPath id="SVGID_10_">
								<use xlink:href="#SVGID_8_"  style="overflow:visible;"/>
							</clipPath>
							<clipPath id="SVGID_11_" class="st7">
								<use xlink:href="#SVGID_9_"  style="overflow:visible;"/>
							</clipPath>
							
								<linearGradient id="SVGID_12_" gradientUnits="userSpaceOnUse" x1="44.704" y1="-1932.896" x2="51.6203" y2="-1985.2783" gradientTransform="matrix(1 0 0 -1 0 -1927.3545)">
								<stop  offset="0.2439" style="stop-color:#000000"/>
								<stop  offset="0.3956" style="stop-color:#484848"/>
								<stop  offset="0.5724" style="stop-color:#969696"/>
								<stop  offset="0.7186" style="stop-color:#CFCFCF"/>
								<stop  offset="0.8265" style="stop-color:#F2F2F2"/>
								<stop  offset="0.8844" style="stop-color:#FFFFFF"/>
							</linearGradient>
							<path class="st8" d="M65.2,9.2c1.3,1.4,2.4,3.1,3.1,5c0.2,0.5,0.4,1.1,0.5,1.6c0,0.3,0.1,0.3,0.4,2.2
								c0.2,1.1,0.2,2.2,0.2,3.4c0,2,0.2,4,0.6,6c0.4,1.9,1,3.9,1.8,5.7c-1.4,0.2-2.8,0.3-4.3,0.5c-4.9,0.6-9.2,1.5-12.5,4.9
								c-0.5,0.5-0.9,1-1.4,1.6c-2.5,3.4-3.2,6.7-2.7,9.9c0.1,0.6,0.2,1.3,0.4,1.9c-8.9,0.7-17.1,0.4-21.8-4.2
								c-1.5-1.5-2.9-3.5-3.4-5.8c-0.5-2.1-0.3-4.3,0.5-6.4c1-2.8,2.7-5.3,4.7-7.5c4.3-4.9,10.5-9.3,15.9-12.2
								c1.5-0.9,2.6-2.3,3.1-4.2c0.2-0.9,0.2-1.9-0.3-2.8c-0.2-0.4-0.6-0.8-1.2-1.2l0,0c-0.3-0.2-0.6-0.3-1.2-0.5l0,0
								c-0.9-0.2-2.2-0.3-3.7-0.2C42,7.1,40,7.6,38.1,8.2c4.8-2,9.5-3.2,13.5-3.6c0.7-0.1,1.5-0.1,2.2-0.2
								C58.5,4.7,62.5,6.3,65.2,9.2z"/>
						</g>
					</g>
				</g>
			</g>
			
				<linearGradient id="SVGID_13_" gradientUnits="userSpaceOnUse" x1="44.704" y1="-1932.896" x2="51.6203" y2="-1985.2783" gradientTransform="matrix(1 0 0 -1 0 -1927.3545)">
				<stop  offset="0.2439" style="stop-color:#36BCD7"/>
				<stop  offset="0.327" style="stop-color:#38A9C6"/>
				<stop  offset="0.5871" style="stop-color:#3C7095"/>
				<stop  offset="0.7806" style="stop-color:#3F4D77"/>
				<stop  offset="0.8844" style="stop-color:#40406B"/>
			</linearGradient>
			<path class="st9" d="M65.2,9.2c1.3,1.4,2.4,3.1,3.1,5c0.2,0.5,0.4,1.1,0.5,1.6c0,0.3,0.1,0.3,0.4,2.2c0.2,1.1,0.2,2.2,0.2,3.4
				c0,2,0.2,4,0.6,6c0.4,1.9,1,3.9,1.8,5.7c-1.4,0.2-2.8,0.3-4.3,0.5c-4.9,0.6-9.2,1.5-12.5,4.9c-0.5,0.5-0.9,1-1.4,1.6
				c-2.5,3.4-3.2,6.7-2.7,9.9c0.1,0.6,0.2,1.3,0.4,1.9c-8.9,0.7-17.1,0.4-21.8-4.2c-1.5-1.5-2.9-3.5-3.4-5.8
				c-0.5-2.1-0.3-4.3,0.5-6.4c1-2.8,2.7-5.3,4.7-7.5c4.3-4.9,10.5-9.3,15.9-12.2c1.5-0.9,2.6-2.3,3.1-4.2c0.2-0.9,0.2-1.9-0.3-2.8
				c-0.2-0.4-0.6-0.8-1.2-1.2l0,0c-0.3-0.2-0.6-0.3-1.2-0.5l0,0c-0.9-0.2-2.2-0.3-3.7-0.2C42,7.1,40,7.6,38.1,8.2
				c4.8-2,9.5-3.2,13.5-3.6c0.7-0.1,1.5-0.1,2.2-0.2C58.5,4.7,62.5,6.3,65.2,9.2z"/>
		</g>
		
			<linearGradient id="SVGID_14_" gradientUnits="userSpaceOnUse" x1="77.4141" y1="-2016.2153" x2="2.4661" y2="-1941.8352" gradientTransform="matrix(1 0 0 -1 0 -1927.3545)">
			<stop  offset="5.850000e-02" style="stop-color:#080526"/>
			<stop  offset="0.2747" style="stop-color:#212C51"/>
			<stop  offset="0.416" style="stop-color:#324870"/>
			<stop  offset="0.4488" style="stop-color:#31577C"/>
			<stop  offset="0.7079" style="stop-color:#2CC6D5"/>
			<stop  offset="0.8228" style="stop-color:#2AF3F9"/>
		</linearGradient>
		<path class="st10" d="M72.7,77.8c8.1,13.1-1.9,23.3-17.2,23.6c-1.1,0-2.2-0.1-3.3-0.2c-7.5-0.7-15-3.2-21.7-7.4
			c-2.4-1.5-4.7-3.3-7-5.3C13.9,79.7,7.9,67,7.9,52.9c0-2.1,0.1-4.1,0.4-6.1c0.6-4.1,1.7-8.4,3.5-12.9c2.4-5.6,5.8-10.6,10-14.9
			c4.9-4.8,10.8-8.4,16.6-10.7c1.9-0.6,3.8-1.1,5.9-1.3c1.5-0.2,2.7-0.1,3.6,0.2l0,0c2.2,0.5,3.1,2.4,2.6,4.5
			c-0.4,1.6-1.5,3.3-3.1,4.2c-5.4,3-11.6,7.3-15.9,12.2c-1.9,2.2-3.7,4.7-4.7,7.5c-0.7,2.1-1,4.3-0.5,6.4c0.5,2.1,1.7,4.1,3.4,5.8
			c4.7,4.6,12.9,5,21.8,4.2C54.4,62,68.1,71.1,72.7,77.8z"/>
		<g>
			<g>
				<g>
					<g>
						<defs>
							<polygon id="SVGID_15_" points="-75.7,173.7 -75.5,173.7 -75.7,174 							"/>
						</defs>
						<clipPath id="SVGID_16_">
							<use xlink:href="#SVGID_15_"  style="overflow:visible;"/>
						</clipPath>
					</g>
					<g>
						<defs>
							<polygon id="SVGID_17_" points="-75.7,173.7 -75.5,173.7 -75.7,174 							"/>
						</defs>
						<defs>
							<polygon id="SVGID_18_" points="-76.1,173.3 -76.4,173.3 -76.1,173.1 							"/>
						</defs>
						<clipPath id="SVGID_19_">
							<use xlink:href="#SVGID_17_"  style="overflow:visible;"/>
						</clipPath>
						<clipPath id="SVGID_20_" class="st11">
							<use xlink:href="#SVGID_18_"  style="overflow:visible;"/>
						</clipPath>
						
							<linearGradient id="SVGID_21_" gradientUnits="userSpaceOnUse" x1="54.146" y1="-1925.9587" x2="16.9228" y2="-1961.7128" gradientTransform="matrix(1 0 0 -1 0 -1927.3545)">
							<stop  offset="2.580000e-02" style="stop-color:#FFFFFF"/>
							<stop  offset="8.080000e-02" style="stop-color:#F9F9F9"/>
							<stop  offset="0.1575" style="stop-color:#E6E6E6"/>
							<stop  offset="0.2469" style="stop-color:#C9C9C9"/>
							<stop  offset="0.346" style="stop-color:#9F9F9F"/>
							<stop  offset="0.4531" style="stop-color:#6A6A6A"/>
							<stop  offset="0.565" style="stop-color:#2A2A2A"/>
							<stop  offset="0.633" style="stop-color:#000000"/>
						</linearGradient>
						<path class="st12" d="M28.7,31.6c0.8-1.3,1.8-2.5,2.7-3.6c4.3-4.9,10.5-9.3,15.9-12.2c1.6-0.9,2.7-2.6,3.1-4.2
							c0.5-2.1-0.4-3.9-2.6-4.5l0,0c-0.9-0.2-2.1-0.3-3.6-0.2c-2.1,0.2-4,0.7-5.9,1.3c-5.8,2.4-11.6,6-16.6,10.7
							c-2.9,2.9-5.4,6.2-7.5,9.8L28.7,31.6z"/>
					</g>
				</g>
			</g>
		</g>
		
			<linearGradient id="SVGID_22_" gradientUnits="userSpaceOnUse" x1="54.146" y1="-1925.9587" x2="16.9228" y2="-1961.7128" gradientTransform="matrix(1 0 0 -1 0 -1927.3545)">
			<stop  offset="2.580000e-02" style="stop-color:#2AF3F9"/>
			<stop  offset="0.2229" style="stop-color:#2AEDF4"/>
			<stop  offset="0.4969" style="stop-color:#2BDBE5"/>
			<stop  offset="0.633" style="stop-color:#2CCFDC"/>
		</linearGradient>
		<path class="st13" d="M28.7,31.6c0.8-1.3,1.8-2.5,2.7-3.6c4.3-4.9,10.5-9.3,15.9-12.2c1.6-0.9,2.7-2.6,3.1-4.2
			c0.5-2.1-0.4-3.9-2.6-4.5l0,0c-0.9-0.2-2.1-0.3-3.6-0.2c-2.1,0.2-4,0.7-5.9,1.3c-5.8,2.4-11.6,6-16.6,10.7
			c-2.9,2.9-5.4,6.2-7.5,9.8L28.7,31.6z"/>
	</g>
	<path class="st14" d="M82.6,32.3v41.1c0,5.2-4.2,9.4-9.4,9.4c-5.2,0-9.4-4.2-9.4-9.4V62.3c0-1.1,0.9-2.1,2.1-2.1
		c1.1,0,2.1,0.9,2.1,2.1v11.1c0,2.9,2.3,5.2,5.2,5.2s5.2-2.3,5.2-5.2V32.3c0-2.9-2.3-5.2-5.2-5.2S68,29.5,68,32.3v7.3v13.2l0,0l0,0
		c0,1.1-0.9,2.1-2.1,2.1h-17l0,0l0,0h-9.3l0,0c-5.2,0-9.4-4.2-9.4-9.4V32.4c0-5.2,4.2-9.4,9.4-9.4s9.4,4.2,9.4,9.4v7.3
		c0,1.1-0.9,2.1-2.1,2.1c-1.1,0-2.1-0.9-2.1-2.1v-7.3c0-2.9-2.3-5.2-5.2-5.2s-5.2,2.3-5.2,5.2v13.3c0,2.9,2.3,5.2,5.2,5.2l0,0h9.3
		h15V39.7v-7.3c0-5.2,4.2-9.4,9.4-9.4S82.6,27.2,82.6,32.3z M46.8,60.2c-1.1,0-2.1,0.9-2.1,2.1v11.2c0,2.9-2.3,5.2-5.2,5.2
		s-5.2-2.3-5.2-5.2V62.3c0-1.1-0.9-2.1-2.1-2.1c-1.1,0-2.1,0.9-2.1,2.1v11.2c0,5.2,4.2,9.4,9.4,9.4s9.4-4.2,9.4-9.4V62.3
		C48.9,61.1,48,60.2,46.8,60.2z"/>
	<g class="st15">
		<path class="st14" d="M118.9,25.7l13.3-3.6V47h29.2V23.5h13.3v55.9h-13.3V58.9h-29.2v20.5h-13.3V25.7z"/>
		<path class="st14" d="M252.8,51.5c0,11-4.2,19-12.7,24c-5.7,3.4-12.7,5.1-21,5.1c-10.2,0-18.2-2.7-24.2-8.2
			c-5.7-5.2-8.5-12.2-8.5-21c0-10.4,3.8-18.2,11.5-23.4c5.7-3.8,12.8-5.8,21.2-5.8c11.1,0,19.6,2.9,25.7,8.6
			C250.1,36.1,252.8,42.9,252.8,51.5z M200.5,51.5c0,8,2.9,13.1,8.8,15.4c2.8,1.1,6.3,1.6,10.5,1.6c10,0,16-3.4,18.1-10.3
			c0.6-2,0.8-4.3,0.8-6.8c0-9.1-3.9-14.6-11.8-16.4c-2.1-0.5-4.5-0.7-7.1-0.7c-9,0-14.9,2.6-17.5,7.7
			C201.1,44.7,200.5,47.8,200.5,51.5z"/>
		<path class="st14" d="M266.3,43.7l13.3-3.6v27.4h21c4,0,7.1-2.2,9.1-6.7c1.4-2.9,2-6.1,2-9.7c0-5.5-1.4-9.8-4.1-12.7
			c-1.9-2-4.3-3-7-3h-34.2l3.6-11.9h32.3c7.6,0,13.6,3.2,18.1,9.6c3.7,5.3,5.6,11.6,5.6,18.9c0,7.7-2.1,14.2-6.2,19.3
			c-4.4,5.4-10.2,8.1-17.4,8.2h-35.9V43.7z"/>
		<path class="st14" d="M340.5,23.5h13.3v55.9h-13.3V23.5z"/>
	</g>
</g>
</svg>
