<?xml version="1.0" encoding="utf-8"?>
<!-- Generator: Adobe Illustrator 24.0.0, SVG Export Plug-In . SVG Version: 6.00 Build 0)  -->
<svg version="1.1" id="Capa_1" focusable="false" xmlns="http://www.w3.org/2000/svg" xmlns:xlink="http://www.w3.org/1999/xlink"
	 x="0px" y="0px" viewBox="0 0 18 19" style="enable-background:new 0 0 18 19;" xml:space="preserve">
<style type="text/css">
	.st0{fill:#FFFFFF;}
</style>
<g>
	<g>
		<path class="st0" d="M11.8,12.9l0-9.2l1.4,1.5c0.2,0.2,0.6,0.2,0.8,0c0.2-0.2,0.2-0.6,0-0.8L10.8,1c-0.2-0.2-0.6-0.2-0.8,0
			L6.8,4.4C6.7,4.5,6.7,4.6,6.7,4.8c0,0.1,0.1,0.3,0.2,0.4c0.2,0.2,0.6,0.2,0.8,0L9,3.7l0,9.2c0,0.8,0.6,1.4,1.4,1.4
			C11.2,14.3,11.8,13.7,11.8,12.9z"/>
	</g>
</g>
<g>
	<g>
		<path class="st0" d="M4.4,14.3L7.6,11c0.2-0.2,0.2-0.6,0-0.8C7.4,10,7,10,6.8,10.2l-1.4,1.5l0-9.2c0-0.8-0.6-1.4-1.4-1.4
			S2.7,1.7,2.7,2.5l0,9.2l-1.4-1.5C1,10,0.7,10,0.4,10.2c-0.1,0.1-0.2,0.3-0.2,0.4c0,0.1,0.1,0.3,0.2,0.4l3.2,3.3
			C3.9,14.6,4.2,14.6,4.4,14.3z"/>
	</g>
</g>
</svg>
