<svg height="24" viewBox="0 0 53 24" width="53" xmlns="http://www.w3.org/2000/svg"><g fill="none" fill-rule="evenodd"><path d="m4 0h38.859265c1.3374127 0 2.586338.66840454 3.3282011 1.78119922l5.3333334 8c.8957317 1.34359768.8957317 3.09400388 0 4.43760158l-5.3333334 8c-.7418631 1.1127947-1.9907884 1.7811992-3.3282011 1.7811992h-38.859265c-2.209139 0-4-1.790861-4-4v-16c0-2.209139 1.790861-4 4-4z" fill="#fee912"/><path d="m10.688 17 .714-3.57h4.522l.378-1.82h-4.55l.518-2.59h5.124l.378-1.82h-7.406l-1.96 9.8zm8.708 0 .728-3.64c.14-.6906667.4083333-1.1993333.805-1.526s.9263333-.49 1.589-.49c.0746667 0 .2426667.0093333.504.028l.392-2.016c-.6253333 0-1.169.07933333-1.631.238s-.8563333.4153333-1.183.77l.182-.896h-2.072l-1.498 7.532zm7.854.112c.5973333 0 1.1666667-.084 1.708-.252s1.022-.42 1.442-.756l-.91-1.442c-.2613333.224-.567.3966667-.917.518s-.7163333.182-1.099.182c-1.2226667 0-1.8713333-.5133333-1.946-1.54h5.768c.084-.42.126-.8026667.126-1.148 0-.6626667-.147-1.246-.441-1.75s-.7093333-.8913333-1.246-1.162c-.5366667-.27066667-1.169-.406-1.897-.406-.8586667 0-1.624.189-2.296.567s-1.197.9006667-1.575 1.568-.567 1.4163333-.567 2.247c0 .672.1563333 1.2646667.469 1.778s.7606667.9076667 1.344 1.183 1.2623333.413 2.037.413zm2.17-4.564h-3.738c.1493333-.4853333.4013333-.8656667.756-1.141s.7886667-.413 1.302-.413.9216667.1376667 1.225.413.455.6556667.455 1.141zm6.622 4.564c.5973333 0 1.1666667-.084 1.708-.252s1.022-.42 1.442-.756l-.91-1.442c-.2613333.224-.567.3966667-.917.518s-.7163333.182-1.099.182c-1.2226667 0-1.8713333-.5133333-1.946-1.54h5.768c.084-.42.126-.8026667.126-1.148 0-.6626667-.147-1.246-.441-1.75s-.7093333-.8913333-1.246-1.162c-.5366667-.27066667-1.169-.406-1.897-.406-.8586667 0-1.624.189-2.296.567s-1.197.9006667-1.575 1.568-.567 1.4163333-.567 2.247c0 .672.1563333 1.2646667.469 1.778s.7606667.9076667 1.344 1.183 1.2623333.413 2.037.413zm2.17-4.564h-3.738c.1493333-.4853333.4013333-.8656667.756-1.141s.7886667-.413 1.302-.413.9216667.1376667 1.225.413.455.6556667.455 1.141z" fill="#18191c" fill-rule="nonzero"/></g></svg>