<svg height="72" width="115" xmlns="http://www.w3.org/2000/svg"><linearGradient id="a" x1="54.292%" x2="54.292%" y1="9.438%" y2="71.525%"><stop offset="0" stop-color="#f9fcff" stop-opacity=".08"/><stop offset="1" stop-color="#f0f8ff" stop-opacity="0"/></linearGradient><path d="M54.017 12c-4.981 0-9.12 3.442-14.344 7.157-5.151 3.664-11.396 7.695-20.5 9.678l-.75-1.743c.964-.727 1.594-1.846 1.594-3.143 0-2.2-1.79-3.983-4-3.983-2.209 0-4 1.783-4 3.983-.25 2.477 2.283 3.931 4.594 3.92L47.11 100l1.812-.778-14.218-33.607c7.431-2.055 12.714-5.55 17.343-8.34 4.722-2.845 8.691-4.95 13.875-4.48 2.57.512 2.94 3.07 3.125 5.165.114 1.34.125 2.643.22 3.672.152 1.515.654 2.335 2.187 2.023 9.857-4.908 19.683-6.846 30.562-6.846.771.021 1.288-1.07.781-1.65-8.228-9.998-20.106-23.835-14.875-35.784.24-.509-.058-1.194-.593-1.37-6.223-2.065-13.22-.106-20.094 2.77-1.774-1.358-3.205-3.306-5-5.134C60.314 13.683 57.803 12 54.017 12zM20.58 32.164c10.208 7.866 11.054 16.297 11.5 27.259z" fill="url(#a)"/></svg>