<svg width="120" height="120" viewBox="0 0 120 120" fill="none" xmlns="http://www.w3.org/2000/svg">
<path d="M12.6235 20.5192L8.57153 17.1426H111.195L107.143 20.5192V80.5972C107.143 86.6751 102.01 97.0751 86.8832 103.558C71.756 110.041 62.2512 114.363 60.0001 115.714C57.749 114.363 48.0105 110.041 32.8832 103.558C17.7559 97.0751 12.6235 86.6751 12.6235 80.5972V20.5192Z" fill="#92472A"/>
<path d="M8.57153 3.28546C8.01925 3.28546 7.57153 3.73318 7.57153 4.28546C7.57153 4.83775 8.01925 5.28546 8.57153 5.28546V3.28546ZM111.195 5.28546C111.747 5.28546 112.195 4.83775 112.195 4.28546C112.195 3.73318 111.747 3.28546 111.195 3.28546V5.28546ZM8.57153 5.28546H111.195V3.28546H8.57153V5.28546Z" fill="#E18D49"/>
<path d="M60 30L30 77.1429H85.7143M60 64.2857V96.4286M72.8571 55.7143L85.7143 42.8571" stroke="#F0F8FF" stroke-width="4" stroke-linecap="round" stroke-linejoin="round"/>
</svg>
